<?xml version="1.0" standalone="no"?>
<!DOCTYPE svg PUBLIC "-//W3C//DTD SVG 20010904//EN"
 "http://www.w3.org/TR/2001/REC-SVG-20010904/DTD/svg10.dtd">
<svg version="1.0" xmlns="http://www.w3.org/2000/svg"
 width="256.000000pt" height="256.000000pt" viewBox="0 0 256.000000 256.000000"
 preserveAspectRatio="xMidYMid meet">

<g transform="translate(0.000000,256.000000) scale(0.100000,-0.100000)"
fill="#000000" stroke="none">
<path d="M1137 2329 c-353 -52 -638 -258 -792 -574 -209 -427 -119 -924 226
-1250 90 -86 162 -133 282 -190 227 -106 501 -124 742 -48 322 102 583 361
689 684 39 121 49 212 43 381 -4 126 -10 169 -31 242 -93 312 -304 556 -585
676 -180 78 -388 106 -574 79z m393 -79 c101 -25 249 -93 334 -154 77 -55 190
-172 245 -255 200 -296 222 -699 56 -1020 -77 -148 -214 -301 -344 -383 l-31
-20 0 100 0 100 -96 166 c-53 91 -99 166 -103 166 -5 0 -15 -8 -24 -18 -16
-17 -12 -27 58 -160 41 -78 75 -144 75 -147 0 -3 -189 -5 -420 -5 -231 0 -420
3 -420 8 0 4 34 68 74 142 l74 135 184 3 c182 2 185 3 208 27 l23 25 -220 0
c-215 0 -220 0 -240 -22 -11 -13 -59 -90 -107 -172 l-86 -148 0 -94 c0 -52 -4
-94 -9 -94 -5 0 -33 19 -63 41 -219 170 -350 388 -393 654 -19 117 -19 209 1
326 38 221 135 401 300 560 141 134 302 216 501 254 107 20 310 13 423 -15z
m160 -1764 l0 -35 -412 2 c-403 2 -411 2 -414 22 -8 46 -17 45 416 45 l410 0
0 -34z m-61 -146 c-8 -5 -53 -19 -100 -32 -72 -20 -108 -23 -249 -23 -142 0
-176 3 -244 23 -44 13 -86 27 -95 32 -10 6 118 9 344 9 222 0 354 -3 344 -9z"/>
<path d="M1204 2093 c11 -171 14 -185 39 -181 20 3 22 8 19 64 -2 47 1 63 12
67 15 6 11 47 -5 47 -4 0 -11 23 -15 50 -6 45 -9 50 -31 50 l-25 0 6 -97z"/>
<path d="M1369 2185 c-1 -3 -2 -11 -3 -17 -1 -7 -11 -13 -23 -13 -23 -1 -28
-7 -21 -25 2 -5 33 -12 69 -16 56 -5 66 -4 66 9 0 9 -11 18 -24 22 -14 3 -23
13 -23 25 0 13 -7 20 -20 20 -11 0 -21 -2 -21 -5z"/>
<path d="M1059 2163 c-1 -5 -2 -42 -3 -85 -1 -65 -4 -80 -24 -100 -22 -24 -22
-25 -3 -42 18 -17 20 -16 47 17 l27 35 28 -20 c29 -22 59 -19 59 7 0 8 -9 20
-21 27 -30 19 -56 67 -63 121 -6 37 -11 47 -27 47 -10 0 -20 -3 -20 -7z"/>
<path d="M1505 2150 c-3 -11 -13 -20 -21 -20 -8 0 -14 -9 -14 -20 0 -11 5 -20
10 -20 6 0 10 -7 10 -15 0 -8 -7 -15 -15 -15 -18 0 -19 -8 -2 -43 15 -34 54
-37 62 -4 10 46 25 140 22 142 -1 2 -12 6 -24 9 -16 5 -23 2 -28 -14z"/>
<path d="M822 2088 c-7 -10 2 -36 36 -95 25 -46 49 -83 52 -83 3 0 14 6 23 13
14 11 11 20 -30 95 -46 81 -61 94 -81 70z"/>
<path d="M1320 2079 c-26 -48 56 -96 108 -63 48 31 13 84 -56 84 -32 0 -44 -5
-52 -21z m80 -24 c0 -8 -9 -15 -20 -15 -11 0 -20 7 -20 15 0 8 9 15 20 15 11
0 20 -7 20 -15z"/>
<path d="M1661 2046 c-17 -29 -31 -58 -31 -63 0 -5 19 -19 43 -30 23 -12 65
-36 94 -52 49 -29 53 -30 62 -13 9 16 0 24 -65 61 -41 24 -73 45 -70 48 2 3
34 -12 71 -32 46 -26 70 -34 77 -27 15 15 4 28 -62 64 -33 18 -60 36 -60 41 0
5 15 0 33 -11 99 -59 118 -67 127 -52 7 11 4 19 -8 28 -27 21 -160 92 -171 92
-5 0 -23 -24 -40 -54z"/>
<path d="M712 2005 l-61 -45 37 -54 c20 -31 40 -55 45 -56 12 0 117 72 117 82
0 7 -70 118 -74 118 -1 0 -30 -20 -64 -45z m58 -82 c-12 -8 -22 -13 -23 -12
-2 2 -9 12 -16 22 -12 15 -11 20 5 32 17 13 21 12 37 -7 17 -20 17 -21 -3 -35z"/>
<path d="M1321 1971 c-25 -47 30 -81 131 -81 71 0 99 38 57 76 -16 14 -40 20
-99 22 -71 4 -79 2 -89 -17z m117 -19 c29 -9 28 -28 -1 -24 -46 6 -67 13 -67
22 0 11 32 12 68 2z"/>
<path d="M1597 1963 c-16 -15 -5 -33 33 -54 45 -25 45 -26 25 -53 -20 -26 -19
-42 2 -51 17 -6 46 18 55 47 3 8 16 4 41 -11 38 -23 67 -23 67 1 0 7 -47 39
-104 71 -113 62 -110 60 -119 50z"/>
<path d="M1942 1908 c-8 -8 -9 -15 0 -25 16 -19 -29 -68 -48 -52 -15 12 -34 4
-34 -14 0 -7 34 -46 75 -87 57 -57 78 -71 86 -63 9 9 9 16 1 26 -17 20 31 65
51 48 11 -9 17 -8 27 4 11 13 1 27 -61 93 -40 42 -76 78 -79 80 -3 1 -11 -3
-18 -10z m59 -142 l-24 -25 -18 22 c-17 21 -17 23 4 45 l21 22 20 -20 20 -20
-23 -24z"/>
<path d="M511 1824 c-37 -44 -60 -81 -57 -90 9 -24 22 -16 75 43 43 48 52 54
66 43 13 -11 19 -10 35 5 20 18 20 19 -7 47 -15 15 -32 28 -38 28 -6 0 -39
-34 -74 -76z"/>
<path d="M940 1882 c-14 -9 -44 -28 -67 -44 l-43 -27 -16 24 c-15 23 -17 23
-39 9 l-24 -16 26 -39 c14 -21 29 -39 32 -39 11 0 170 100 177 111 3 6 0 17
-7 24 -12 11 -18 10 -39 -3z"/>
<path d="M1244 1881 c-2 -2 -4 -35 -4 -72 0 -57 3 -70 19 -79 45 -24 51 -15
51 73 l0 82 -31 0 c-17 0 -33 -2 -35 -4z"/>
<path d="M585 1755 c-83 -90 -87 -97 -69 -110 17 -13 22 -11 50 22 40 46 67
36 30 -11 -19 -25 -22 -36 -13 -45 18 -18 22 -15 73 48 l48 60 27 -19 c25 -19
27 -19 43 -2 15 17 13 21 -22 55 l-38 37 -29 -30 c-19 -20 -32 -27 -39 -20 -7
7 1 22 24 45 31 32 33 37 19 51 -14 13 -24 5 -104 -81z"/>
<path d="M1857 1763 c-14 -15 -21 -15 -37 -5 -17 10 -50 7 -50 -5 0 -2 37 -45
82 -94 72 -78 84 -87 97 -74 13 13 13 17 -2 33 -16 18 -16 20 3 37 19 17 19
19 3 37 -16 18 -17 18 -38 -2 -16 -15 -24 -17 -33 -8 -16 16 -15 28 5 50 15
16 15 20 2 33 -13 13 -17 13 -32 -2z"/>
<path d="M1186 1703 c-10 -26 12 -40 96 -61 68 -17 79 -18 90 -5 21 25 -4 46
-78 65 -86 22 -100 22 -108 1z"/>
<path d="M1186 1624 c-10 -26 10 -41 79 -58 80 -20 104 -20 111 -1 10 25 -13
42 -81 59 -81 20 -101 20 -109 0z"/>
<path d="M1187 1546 c-9 -24 15 -42 80 -59 78 -21 102 -21 109 -2 10 25 -13
42 -81 59 -79 20 -101 20 -108 2z"/>
<path d="M1162 1388 c-73 -111 -82 -134 -82 -201 0 -66 30 -121 88 -162 38
-26 52 -30 112 -30 60 0 74 4 111 30 79 56 109 156 74 243 -9 20 -37 70 -63
110 -49 75 -56 79 -148 98 -29 5 -33 2 -92 -88z m245 -152 c32 -91 -29 -176
-126 -178 -49 0 -97 25 -121 65 -36 58 -24 110 51 225 27 40 51 82 54 93 5 15
18 1 67 -73 34 -51 68 -111 75 -132z"/>
<path d="M1505 1009 c-55 -55 -131 -128 -168 -161 l-68 -61 -40 39 c-34 33
-46 39 -85 39 -24 0 -44 -2 -44 -4 0 -2 39 -47 87 -99 l88 -95 192 199 192
198 -21 23 c-12 13 -24 23 -27 23 -4 0 -51 -45 -106 -101z"/>
<path d="M1030 734 c-6 -14 -10 -30 -10 -35 0 -5 45 -9 101 -9 l100 0 -27 35
c-25 34 -29 35 -90 35 -60 0 -65 -2 -74 -26z"/>
<path d="M1360 725 l-34 -35 107 0 c114 0 122 4 97 51 -9 16 -22 19 -73 19
-59 0 -65 -2 -97 -35z"/>
</g>
</svg>
