<svg xmlns="http://www.w3.org/2000/svg" viewBox="0 0 200 200">
  <defs>
    <filter id="flame-blur" x="-50%" y="-50%" width="200%" height="200%">
      <feGaussianBlur in="SourceGraphic" stdDeviation="3" result="blur"/>
      <feFlood flood-color="#ff4500" flood-opacity="0.7" result="color"/>
      <feComposite in="color" in2="blur" operator="in" result="glow"/>
      <feComposite in="SourceGraphic" in2="glow" operator="over"/>
    </filter>

    <radialGradient id="flame-gradient" cx="50%" cy="40%" r="60%" fx="50%" fy="40%">
      <stop offset="0%" stop-color="#ffdd00" stop-opacity="1"/>
      <stop offset="40%" stop-color="#ff4500" stop-opacity="0.9"/>
      <stop offset="100%" stop-color="#8b0000" stop-opacity="0.7"/>
    </radialGradient>
  </defs>

  <!-- 주요 불꽃 -->
  <g filter="url(#flame-blur)">
    <!-- 중앙 불꽃 -->
    <path d="M 100,10
             C 110,40 130,30 120,60
             C 150,80 130,110 120,120
             C 110,150 90,150 80,120
             C 70,110 50,80 80,60
             C 70,30 90,40 100,10 Z"
      fill="url(#flame-gradient)">
      <animate attributeName="d" values="
        M 100,10 C 110,40 130,30 120,60 C 150,80 130,110 120,120 C 110,150 90,150 80,120 C 70,110 50,80 80,60 C 70,30 90,40 100,10 Z;
        M 100,15 C 120,45 135,35 125,65 C 155,85 135,115 125,125 C 115,155 85,155 75,125 C 65,115 45,85 75,65 C 65,35 85,45 100,15 Z;
        M 100,10 C 110,40 130,30 120,60 C 150,80 130,110 120,120 C 110,150 90,150 80,120 C 70,110 50,80 80,60 C 70,30 90,40 100,10 Z"
        dur="1.5s" repeatCount="indefinite"/>
    </path>

    <!-- 왼쪽 불꽃 -->
    <path d="M 60,40
             C 65,60 80,50 70,80
             C 90,90 75,110 70,115
             C 60,130 50,130 40,115
             C 35,110 20,90 40,80
             C 30,50 45,60 60,40 Z"
      fill="url(#flame-gradient)" opacity="0.8">
      <animate attributeName="d" values="
        M 60,40 C 65,60 80,50 70,80 C 90,90 75,110 70,115 C 60,130 50,130 40,115 C 35,110 20,90 40,80 C 30,50 45,60 60,40 Z;
        M 60,45 C 70,65 85,55 75,85 C 95,95 80,115 75,120 C 65,135 45,135 35,120 C 30,115 15,95 35,85 C 25,55 40,65 60,45 Z;
        M 60,40 C 65,60 80,50 70,80 C 90,90 75,110 70,115 C 60,130 50,130 40,115 C 35,110 20,90 40,80 C 30,50 45,60 60,40 Z"
        dur="2s" repeatCount="indefinite"/>
    </path>

    <!-- 오른쪽 불꽃 -->
    <path d="M 140,40
             C 155,60 135,50 160,80
             C 180,90 165,110 160,115
             C 150,130 140,130 130,115
             C 125,110 110,90 130,80
             C 125,50 135,60 140,40 Z"
      fill="url(#flame-gradient)" opacity="0.8">
      <animate attributeName="d" values="
        M 140,40 C 155,60 135,50 160,80 C 180,90 165,110 160,115 C 150,130 140,130 130,115 C 125,110 110,90 130,80 C 125,50 135,60 140,40 Z;
        M 140,45 C 155,65 135,55 160,85 C 180,95 165,115 160,120 C 150,135 140,135 130,120 C 125,115 110,95 130,85 C 125,55 135,65 140,45 Z;
        M 140,40 C 155,60 135,50 160,80 C 180,90 165,110 160,115 C 150,130 140,130 130,115 C 125,110 110,90 130,80 C 125,50 135,60 140,40 Z"
        dur="1.8s" repeatCount="indefinite"/>
    </path>
  </g>

  <!-- 불꽃 입자 효과 -->
  <g>
    <circle cx="100" cy="80" r="2" fill="#ffdd00">
      <animate attributeName="cy" values="80;30;80" dur="2s" repeatCount="indefinite"/>
      <animate attributeName="opacity" values="1;0;1" dur="2s" repeatCount="indefinite"/>
    </circle>
    <circle cx="110" cy="90" r="1.5" fill="#ffdd00">
      <animate attributeName="cy" values="90;50;90" dur="1.5s" repeatCount="indefinite"/>
      <animate attributeName="opacity" values="1;0;1" dur="1.5s" repeatCount="indefinite"/>
    </circle>
    <circle cx="90" cy="85" r="1.8" fill="#ffdd00">
      <animate attributeName="cy" values="85;45;85" dur="1.8s" repeatCount="indefinite"/>
      <animate attributeName="opacity" values="1;0;1" dur="1.8s" repeatCount="indefinite"/>
    </circle>
    <circle cx="120" cy="95" r="1.3" fill="#ffdd00">
      <animate attributeName="cy" values="95;60;95" dur="2.2s" repeatCount="indefinite"/>
      <animate attributeName="opacity" values="1;0;1" dur="2.2s" repeatCount="indefinite"/>
    </circle>
    <circle cx="80" cy="88" r="1.4" fill="#ffdd00">
      <animate attributeName="cy" values="88;55;88" dur="1.9s" repeatCount="indefinite"/>
      <animate attributeName="opacity" values="1;0;1" dur="1.9s" repeatCount="indefinite"/>
    </circle>
  </g>
</svg>