<svg xmlns="http://www.w3.org/2000/svg" viewBox="0 0 64 64">
  <!-- Background circle with gradient -->
  <defs>
    <linearGradient id="gradient" x1="0%" y1="0%" x2="100%" y2="100%">
      <stop offset="0%" stop-color="#6366F1" />
      <stop offset="100%" stop-color="#8B5CF6" />
    </linearGradient>
  </defs>

  <!-- Main circle -->
  <circle cx="32" cy="32" r="30" fill="url(#gradient)" />

  <!-- People silhouettes in white -->
  <g fill="#FFFFFF" opacity="0.95">
    <!-- Center person (slightly larger) -->
    <circle cx="32" cy="24" r="8" />
    <path d="M32,34 C25,34 19,39 18,46 C18,47 18,48 18,48 L46,48 C46,48 46,47 46,46 C45,39 39,34 32,34 Z" />

    <!-- Left person (smaller) -->
    <circle cx="18" cy="20" r="5" opacity="0.7" />
    <path d="M18,26 C14,26 10,29 9,33 C9,34 9,34 9,34 L27,34 C27,34 27,34 27,33 C26,29 22,26 18,26 Z" opacity="0.7" />

    <!-- Right person (smaller) -->
    <circle cx="46" cy="20" r="5" opacity="0.7" />
    <path d="M46,26 C42,26 38,29 37,33 C37,34 37,34 37,34 L55,34 C55,34 55,34 55,33 C54,29 50,26 46,26 Z" opacity="0.7" />
  </g>

  <!-- Border to ensure clean edges on small sizes -->
  <circle cx="32" cy="32" r="30" fill="none" stroke="#FFFFFF" stroke-width="1" opacity="0.3" />
</svg>